<svg aria-hidden="true" style="position:absolute;width:0;height:0;overflow:hidden" xmlns="http://www.w3.org/2000/svg">
    <defs>
        <symbol id="stroke" viewBox="0 0 70 70" fill="currentColor">
            <path d="M4.094 22.861v0zM0.666 20.519c-0.533 0.202-0.801 0.798-0.599 1.331l3.297 8.686c0.202 0.533 0.798 0.801 1.331 0.599s0.801-0.798 0.599-1.331l-2.931-7.72 7.72-2.931c0.533-0.202 0.801-0.798 0.599-1.331s-0.798-0.801-1.331-0.599l-8.686 3.297zM4.518 21.92l-3.062-1.377-0.847 1.883 3.062 1.377 0.847-1.883zM51.247 0.725c-6.018 19.693-27.948 29.64-46.729 21.195l-0.847 1.883c19.914 8.955 43.169-1.592 49.55-22.474l-1.974-0.603z"></path>
        </symbol>
        <symbol id="dribbble" viewBox="0 0 32 32">
            <path fill="#ea4c89" style="fill: var(--color1, #ea4c89)" d="M16.221 31.258c8.386 0 15.184-6.798 15.184-15.184s-6.798-15.184-15.184-15.184c-8.386 0-15.184 6.798-15.184 15.184s6.798 15.184 15.184 15.184z"></path>
            <path fill="#c32361" style="fill: var(--color2, #c32361)" d="M16.221 0.401c-8.653 0-15.674 7.021-15.674 15.674s7.021 15.673 15.674 15.673c8.636 0 15.673-7.021 15.673-15.673s-7.038-15.674-15.673-15.674zM26.574 7.626c1.87 2.278 2.992 5.185 3.026 8.33-0.442-0.085-4.862-0.986-9.316-0.425-0.102-0.221-0.187-0.459-0.289-0.697-0.272-0.646-0.578-1.309-0.884-1.938 4.93-2.006 7.174-4.896 7.463-5.27zM16.221 2.713c3.4 0 6.511 1.275 8.874 3.366-0.238 0.34-2.261 3.043-7.021 4.828-2.193-4.029-4.624-7.327-4.998-7.837 1.003-0.238 2.057-0.357 3.145-0.357zM10.527 3.971c0.357 0.476 2.737 3.791 4.964 7.735-6.256 1.666-11.781 1.632-12.376 1.632 0.867-4.148 3.672-7.599 7.412-9.367zM2.826 16.091c0-0.136 0-0.272 0-0.408 0.578 0.017 7.072 0.102 13.753-1.904 0.391 0.748 0.748 1.513 1.088 2.278-0.17 0.051-0.357 0.102-0.527 0.153-6.902 2.227-10.574 8.313-10.88 8.823-2.125-2.363-3.434-5.508-3.434-8.942zM16.221 29.47c-3.094 0-5.95-1.054-8.211-2.822 0.238-0.493 2.958-5.729 10.506-8.364 0.034-0.017 0.051-0.017 0.085-0.034 1.887 4.879 2.652 8.976 2.856 10.149-1.615 0.697-3.383 1.071-5.236 1.071zM23.684 27.175c-0.136-0.816-0.85-4.726-2.601-9.537 4.199-0.663 7.871 0.425 8.33 0.578-0.578 3.723-2.72 6.936-5.729 8.959z"></path>
        </symbol>
        <symbol id="facebook" viewBox="0 0 32 32">
            <path fill="#1877f2" style="fill: var(--color3, #1877f2)" d="M31.844 15.723c0-8.656-7.017-15.673-15.673-15.673s-15.673 7.017-15.673 15.673c0 7.823 5.732 14.307 13.225 15.483v-10.953h-3.98v-4.531h3.98v-3.453c0-3.928 2.34-6.098 5.92-6.098 1.714 0 3.509 0.306 3.509 0.306v3.857h-1.976c-1.947 0-2.554 1.208-2.554 2.449v2.939h4.347l-0.695 4.531h-3.652v10.953c7.493-1.176 13.225-7.66 13.225-15.483z"></path>
            <path fill="#fff" style="fill: var(--color4, #fff)" d="M22.271 20.254l0.695-4.531h-4.347v-2.939c0-1.239 0.607-2.449 2.554-2.449h1.976v-3.857c0 0-1.794-0.306-3.509-0.306-3.58 0-5.92 2.17-5.92 6.098v3.453h-3.98v4.531h3.98v10.953c1.623 0.254 3.275 0.254 4.898 0v-10.953h3.652z"></path>
        </symbol>
        <symbol id="pinterest" viewBox="0 0 32 32">
            <path fill="#fff" style="fill: var(--color4, #fff)" d="M16.32 31.376c8.656 0 15.673-7.017 15.673-15.673s-7.017-15.673-15.673-15.673c-8.656 0-15.673 7.017-15.673 15.673s7.017 15.673 15.673 15.673z"></path>
            <path fill="#e60019" style="fill: var(--color5, #e60019)" d="M16.32 0.029c-8.656 0-15.673 7.018-15.673 15.673 0 6.643 4.128 12.319 9.959 14.603-0.142-1.238-0.258-3.148 0.052-4.502 0.284-1.225 1.832-7.792 1.832-7.792s-0.464-0.942-0.464-2.322c0-2.18 1.264-3.805 2.838-3.805 1.342 0 1.987 1.006 1.987 2.206 0 1.342-0.851 3.354-1.303 5.225-0.374 1.561 0.787 2.838 2.322 2.838 2.786 0 4.928-2.941 4.928-7.172 0-3.754-2.696-6.373-6.553-6.373-4.463 0-7.082 3.341-7.082 6.798 0 1.342 0.516 2.786 1.161 3.573 0.129 0.155 0.142 0.297 0.103 0.451-0.116 0.49-0.387 1.561-0.439 1.78-0.065 0.284-0.232 0.348-0.529 0.206-1.961-0.916-3.186-3.767-3.186-6.076 0-4.941 3.586-9.482 10.359-9.482 5.431 0 9.662 3.87 9.662 9.056 0 5.405-3.406 9.752-8.127 9.752-1.587 0-3.083-0.826-3.586-1.806 0 0-0.787 2.993-0.98 3.728-0.348 1.367-1.303 3.070-1.948 4.115 1.471 0.452 3.019 0.697 4.644 0.697 8.656 0 15.673-7.018 15.673-15.673 0.026-8.682-6.992-15.699-15.648-15.699z"></path>
        </symbol>
        <symbol id="twitter" viewBox="0 0 31 32">
            <path fill="#1da1f2" style="fill: var(--color6, #1da1f2)" d="M11.065 28.143c10.911-0.75 16.257-10.199 15.718-18.038-0.018-0.257-0.035-0.512-0.070-0.766 1.103-0.919 2.034-2.028 2.749-3.274-1.050 0.554-2.176 0.948-3.343 1.167 1.188-0.826 2.034-2.056 2.383-3.46-1.117 0.771-2.357 1.346-3.668 1.699-0.96-0.89-2.186-1.438-3.489-1.561s-2.61 0.188-3.718 0.883-1.957 1.736-2.415 2.962c-0.457 1.226-0.498 2.569-0.115 3.82-2.367 0.044-4.716-0.411-6.895-1.334s-4.141-2.294-5.756-4.024c-0.669 1.358-0.795 2.92-0.353 4.368s1.42 2.672 2.733 3.425c-0.946 0.037-1.887-0.154-2.743-0.558l0.005 0.075c0.095 1.37 0.66 2.664 1.6 3.665s2.198 1.645 3.559 1.823c-0.857 0.298-1.771 0.396-2.671 0.286 0.46 1.153 1.269 2.132 2.313 2.803s2.272 0.998 3.512 0.936c-1.163 1.051-2.523 1.863-4 2.388s-3.044 0.754-4.61 0.674c2.832 1.554 6.052 2.261 9.275 2.035z"></path>
        </symbol>
        <symbol id="close" viewBox="0 0 32 32">
                <path fill="none" stroke="#fff" style="stroke: var(--color1, #fff)" stroke-linejoin="round" stroke-linecap="round" stroke-miterlimit="4" stroke-width="4" d="M5.847 28.566l21.124-24.037M28.427 27.11l-24.037-21.124"></path>
        </symbol>
        <symbol id="reddit" viewBox="0 0 32 32">
            <path fill="#ff4500" style="fill: var(--color1, #ff4500)" d="M16 31.82c8.737 0 15.82-7.083 15.82-15.82s-7.083-15.82-15.82-15.82c-8.737 0-15.82 7.083-15.82 15.82s7.083 15.82 15.82 15.82z"></path>
            <path fill="#fff" style="fill: var(--color2, #fff)" d="M26.547 16c0-1.277-1.036-2.313-2.313-2.313-0.629 0-1.184 0.241-1.591 0.648-1.573-1.129-3.756-1.869-6.162-1.961l1.055-4.94 3.423 0.722c0.037 0.87 0.759 1.573 1.647 1.573 0.907 0 1.647-0.74 1.647-1.647s-0.74-1.647-1.647-1.647c-0.648 0-1.203 0.37-1.462 0.925l-3.83-0.814c-0.111-0.018-0.222 0-0.315 0.056s-0.148 0.148-0.185 0.259l-1.166 5.514c-2.461 0.074-4.663 0.796-6.254 1.961-0.407-0.389-0.981-0.648-1.591-0.648-1.277 0-2.313 1.036-2.313 2.313 0 0.944 0.555 1.739 1.369 2.109-0.037 0.222-0.055 0.463-0.055 0.703 0 3.553 4.126 6.421 9.233 6.421s9.233-2.868 9.233-6.421c0-0.241-0.018-0.463-0.055-0.685 0.759-0.37 1.332-1.184 1.332-2.128zM10.727 17.647c0-0.907 0.74-1.647 1.647-1.647s1.647 0.74 1.647 1.647c0 0.907-0.74 1.647-1.647 1.647s-1.647-0.74-1.647-1.647zM19.923 21.995c-1.129 1.129-3.275 1.203-3.904 1.203s-2.794-0.093-3.904-1.203c-0.167-0.167-0.167-0.444 0-0.611s0.444-0.166 0.611 0c0.703 0.703 2.22 0.962 3.312 0.962s2.59-0.259 3.312-0.962c0.166-0.166 0.444-0.166 0.611 0 0.13 0.185 0.13 0.444-0.037 0.611zM19.627 19.294c-0.907 0-1.647-0.74-1.647-1.647s0.74-1.647 1.647-1.647c0.907 0 1.647 0.74 1.647 1.647s-0.74 1.647-1.647 1.647z"></path>
        </symbol>
        <symbol id="tiktok" viewBox="0 0 32 32">
            <path fill="#ff004f" style="fill: var(--color3, #ff004f)" d="M22.825 11.601c2.035 1.46 4.527 2.318 7.219 2.318v-5.199c-0.509 0-1.018-0.053-1.516-0.159v4.092c-2.692 0-5.184-0.859-7.219-2.318v10.609c0 5.307-4.287 9.61-9.575 9.61-1.973 0-3.807-0.599-5.331-1.625 1.739 1.784 4.164 2.891 6.846 2.891 5.289 0 9.576-4.302 9.576-9.61v-10.609h-0zM24.695 6.356c-1.040-1.14-1.723-2.613-1.87-4.242v-0.669h-1.437c0.362 2.070 1.595 3.839 3.307 4.911zM9.747 24.856c-0.581-0.764-0.895-1.7-0.893-2.661 0-2.427 1.961-4.396 4.38-4.396 0.451-0 0.899 0.069 1.329 0.206v-5.315c-0.502-0.069-1.009-0.098-1.515-0.088v4.137c-0.43-0.137-0.878-0.206-1.329-0.206-2.419 0-4.38 1.968-4.38 4.396 0 1.717 0.98 3.203 2.409 3.927z"></path>
            <path fill="#000" style="fill: var(--color4, #000)" d="M21.308 10.335c2.035 1.46 4.527 2.318 7.219 2.318v-4.092c-1.503-0.321-2.833-1.109-3.833-2.205-1.712-1.072-2.945-2.841-3.307-4.911h-3.774v20.765c-0.009 2.421-1.966 4.381-4.38 4.381-1.423 0-2.686-0.681-3.487-1.735-1.429-0.724-2.409-2.21-2.409-3.927 0-2.428 1.961-4.396 4.38-4.396 0.464 0 0.91 0.072 1.329 0.206v-4.137c-5.195 0.108-9.374 4.368-9.374 9.607 0 2.615 1.040 4.986 2.729 6.719 1.524 1.027 3.357 1.625 5.331 1.625 5.288 0 9.575-4.302 9.575-9.61v-10.61h-0z"></path>
        <path fill="#00f2ea" style="fill: var(--color5, #00f2ea)" d="M28.528 8.562v-1.107c-1.355 0.002-2.683-0.379-3.833-1.099 1.018 1.118 2.358 1.889 3.833 2.205zM21.388 1.445c-0.035-0.198-0.061-0.397-0.079-0.597v-0.669h-5.211v20.765c-0.008 2.42-1.966 4.381-4.38 4.381-0.709 0-1.378-0.169-1.971-0.469 0.8 1.054 2.064 1.734 3.487 1.734 2.414 0 4.372-1.96 4.38-4.381v-20.765h3.774zM13.047 12.603v-1.178c-0.435-0.060-0.874-0.090-1.314-0.089-5.289-0-9.576 4.302-9.576 9.609 0 3.327 1.685 6.259 4.245 7.984-1.689-1.732-2.729-4.103-2.729-6.719 0-5.239 4.178-9.499 9.374-9.607z"></path>
        </symbol>
        <symbol id="discord" viewBox="0 0 32 32">
            <path fill="#5865f2" style="fill: var(--color6, #5865f2)" d="M26.965 5.658c-2.017-0.925-4.179-1.607-6.44-1.998-0.041-0.007-0.082 0.011-0.104 0.049-0.278 0.495-0.586 1.14-0.802 1.647-2.432-0.364-4.851-0.364-7.233 0-0.216-0.518-0.535-1.153-0.814-1.647-0.021-0.036-0.062-0.055-0.104-0.049-2.26 0.389-4.422 1.071-6.44 1.998-0.017 0.008-0.032 0.020-0.042 0.036-4.102 6.128-5.226 12.106-4.674 18.009 0.003 0.029 0.019 0.057 0.041 0.074 2.706 1.988 5.328 3.194 7.901 3.994 0.041 0.013 0.085-0.002 0.111-0.036 0.609-0.831 1.151-1.707 1.616-2.629 0.027-0.054 0.001-0.118-0.055-0.139-0.861-0.326-1.68-0.724-2.468-1.176-0.062-0.036-0.067-0.126-0.010-0.168 0.166-0.124 0.332-0.254 0.49-0.384 0.029-0.024 0.069-0.029 0.102-0.014 5.178 2.364 10.784 2.364 15.901 0 0.034-0.016 0.074-0.011 0.104 0.013 0.158 0.131 0.324 0.261 0.491 0.385 0.057 0.043 0.054 0.132-0.009 0.168-0.788 0.461-1.608 0.85-2.469 1.175-0.056 0.021-0.081 0.087-0.054 0.141 0.475 0.92 1.018 1.797 1.615 2.628 0.025 0.035 0.070 0.050 0.111 0.038 2.585-0.8 5.207-2.006 7.913-3.994 0.024-0.018 0.039-0.044 0.041-0.073 0.66-6.825-1.105-12.754-4.678-18.009-0.009-0.018-0.024-0.030-0.041-0.038zM10.753 20.109c-1.559 0-2.844-1.431-2.844-3.189s1.26-3.189 2.844-3.189c1.596 0 2.868 1.444 2.844 3.189 0 1.758-1.26 3.189-2.844 3.189zM21.266 20.109c-1.559 0-2.843-1.431-2.843-3.189s1.26-3.189 2.843-3.189c1.596 0 2.868 1.444 2.844 3.189 0 1.758-1.247 3.189-2.844 3.189z"></path>
        </symbol>
        <symbol id="figma" viewBox="0 0 32 32">
            <path fill="#0acf83" style="fill: var(--color7, #0acf83)" d="M10.727 31.82c2.911 0 5.273-2.363 5.273-5.273v-5.273h-5.273c-2.911 0-5.274 2.363-5.274 5.273s2.363 5.273 5.274 5.273z"></path>
            <path fill="#a259ff" style="fill: var(--color8, #a259ff)" d="M5.453 16c0-2.911 2.363-5.273 5.274-5.273h5.273v10.547h-5.273c-2.911 0-5.274-2.362-5.274-5.273z"></path>
            <path fill="#f24e1e" style="fill: var(--color9, #f24e1e)" d="M5.453 5.453c0-2.911 2.363-5.273 5.274-5.273h5.273v10.547h-5.273c-2.911 0-5.274-2.362-5.274-5.273z"></path>
            <path fill="#ff7262" style="fill: var(--color10, #ff7262)" d="M16 0.18h5.274c2.911 0 5.273 2.363 5.273 5.273s-2.363 5.273-5.273 5.273h-5.274v-10.547z"></path>
            <path fill="#1abcfe" style="fill: var(--color11, #1abcfe)" d="M26.547 16c0 2.911-2.363 5.273-5.273 5.273s-5.274-2.363-5.274-5.273 2.363-5.273 5.274-5.273c2.911 0 5.273 2.363 5.273 5.273z"></path>
        </symbol>
        <symbol id="spotify" viewBox="0 0 32 32">
            <path fill="#1ed760" style="fill: var(--color12, #1ed760)" d="M16 0.18c-8.737 0-15.82 7.082-15.82 15.82s7.083 15.82 15.82 15.82c8.737 0 15.82-7.082 15.82-15.82s-7.083-15.82-15.82-15.82zM23.718 22.986c-0.254 0.45-0.721 0.703-1.203 0.703-0.225 0-0.458-0.056-0.671-0.175-1.975-1.107-4.128-1.786-6.402-2.016-2.28-0.228-4.53 0.003-6.692 0.693-0.721 0.23-1.498-0.168-1.728-0.891-0.233-0.724 0.168-1.498 0.892-1.729 2.522-0.806 5.151-1.080 7.807-0.81 2.651 0.27 5.163 1.061 7.469 2.353 0.664 0.37 0.901 1.208 0.53 1.872zM25.612 18.18c-0.244 0.471-0.724 0.74-1.22 0.74-0.216 0-0.431-0.049-0.635-0.156-2.428-1.265-5.050-2.048-7.8-2.327-2.771-0.284-5.515-0.036-8.162 0.727-0.731 0.208-1.493-0.21-1.702-0.941-0.211-0.73 0.211-1.492 0.94-1.703 2.987-0.861 6.084-1.137 9.202-0.821 3.097 0.315 6.055 1.198 8.795 2.625 0.671 0.351 0.935 1.181 0.582 1.855zM26.298 14.183c-0.206 0-0.415-0.046-0.614-0.144-2.881-1.437-5.98-2.332-9.214-2.66-3.238-0.331-6.46-0.075-9.578 0.757-0.733 0.195-1.486-0.24-1.683-0.975s0.24-1.488 0.976-1.684c3.44-0.919 6.997-1.198 10.566-0.835 3.564 0.361 6.982 1.349 10.161 2.934 0.681 0.339 0.956 1.166 0.618 1.845-0.24 0.483-0.726 0.762-1.232 0.762z"></path>
        </symbol>
        <symbol id="grop" viewBox="0 0 29 32" fill="currentColor">
            <path stroke-linejoin="round" stroke-linecap="round" stroke-miterlimit="4" stroke-width="2.1818" d="M21.091 1.455h-14.022c-3.098 0-5.615 2.531-5.615 5.615v20.495c0 2.618 1.876 3.724 4.175 2.458l7.098-3.942c0.756-0.422 1.978-0.422 2.72 0l7.098 3.942c2.298 1.28 4.175 0.175 4.175-2.458v-20.495c-0.015-3.084-2.531-5.615-5.629-5.615z"></path>
            <path stroke-linejoin="round" stroke-linecap="round" stroke-miterlimit="4" stroke-width="2.1818" d="M10.575 14.545l2.182 2.182 5.818-5.818"></path>
        </symbol>
        <symbol id="close" viewBox="0 0 32 32" fill="currentColor">
            <path d="M25.333 8.547l-1.88-1.88-7.453 7.453-7.453-7.453-1.88 1.88 7.453 7.453-7.453 7.453 1.88 1.88 7.453-7.453 7.453 7.453 1.88-1.88-7.453-7.453 7.453-7.453z"></path>
        </symbol>
        <symbol id="menu" viewBox="0 0 40 32" fill="currentColor">
            <path d="M6.641 8h26.566v2.667h-26.566v-2.667zM13.283 14.667h19.925v2.667h-19.925v-2.667zM21.585 21.333h11.623v2.667h-11.623v-2.667z"></path>
        </symbol>
    </defs>
</svg>