<svg aria-hidden="true" style="position:absolute;width:0;height:0;overflow:hidden" xmlns="http://www.w3.org/2000/svg">
    <defs>
        <symbol id="stroke" viewBox="0 0 70 70" fill="currentColor">
            <path fill="#e6e6e6" style="fill: var(--color1, #e6e6e6)" d="M4.094 22.861v0zM0.666 20.519c-0.533 0.202-0.801 0.798-0.599 1.331l3.297 8.686c0.202 0.533 0.798 0.801 1.331 0.599s0.801-0.798 0.599-1.331l-2.931-7.72 7.72-2.931c0.533-0.202 0.801-0.798 0.599-1.331s-0.798-0.801-1.331-0.599l-8.686 3.297zM4.518 21.92l-3.062-1.377-0.847 1.883 3.062 1.377 0.847-1.883zM51.247 0.725c-6.018 19.693-27.948 29.64-46.729 21.195l-0.847 1.883c19.914 8.955 43.169-1.592 49.55-22.474l-1.974-0.603z"></path>
        </symbol>
        <symbol id="dribbble" viewBox="0 0 32 32">
            <path fill="#ea4c89" style="fill: var(--color1, #ea4c89)" d="M16.221 31.258c8.386 0 15.184-6.798 15.184-15.184s-6.798-15.184-15.184-15.184c-8.386 0-15.184 6.798-15.184 15.184s6.798 15.184 15.184 15.184z"></path>
            <path fill="#c32361" style="fill: var(--color2, #c32361)" d="M16.221 0.401c-8.653 0-15.674 7.021-15.674 15.674s7.021 15.673 15.674 15.673c8.636 0 15.673-7.021 15.673-15.673s-7.038-15.674-15.673-15.674zM26.574 7.626c1.87 2.278 2.992 5.185 3.026 8.33-0.442-0.085-4.862-0.986-9.316-0.425-0.102-0.221-0.187-0.459-0.289-0.697-0.272-0.646-0.578-1.309-0.884-1.938 4.93-2.006 7.174-4.896 7.463-5.27zM16.221 2.713c3.4 0 6.511 1.275 8.874 3.366-0.238 0.34-2.261 3.043-7.021 4.828-2.193-4.029-4.624-7.327-4.998-7.837 1.003-0.238 2.057-0.357 3.145-0.357zM10.527 3.971c0.357 0.476 2.737 3.791 4.964 7.735-6.256 1.666-11.781 1.632-12.376 1.632 0.867-4.148 3.672-7.599 7.412-9.367zM2.826 16.091c0-0.136 0-0.272 0-0.408 0.578 0.017 7.072 0.102 13.753-1.904 0.391 0.748 0.748 1.513 1.088 2.278-0.17 0.051-0.357 0.102-0.527 0.153-6.902 2.227-10.574 8.313-10.88 8.823-2.125-2.363-3.434-5.508-3.434-8.942zM16.221 29.47c-3.094 0-5.95-1.054-8.211-2.822 0.238-0.493 2.958-5.729 10.506-8.364 0.034-0.017 0.051-0.017 0.085-0.034 1.887 4.879 2.652 8.976 2.856 10.149-1.615 0.697-3.383 1.071-5.236 1.071zM23.684 27.175c-0.136-0.816-0.85-4.726-2.601-9.537 4.199-0.663 7.871 0.425 8.33 0.578-0.578 3.723-2.72 6.936-5.729 8.959z"></path>
        </symbol>
        <symbol id="facebook" viewBox="0 0 32 32">
            <path fill="#1877f2" style="fill: var(--color3, #1877f2)" d="M31.844 15.723c0-8.656-7.017-15.673-15.673-15.673s-15.673 7.017-15.673 15.673c0 7.823 5.732 14.307 13.225 15.483v-10.953h-3.98v-4.531h3.98v-3.453c0-3.928 2.34-6.098 5.92-6.098 1.714 0 3.509 0.306 3.509 0.306v3.857h-1.976c-1.947 0-2.554 1.208-2.554 2.449v2.939h4.347l-0.695 4.531h-3.652v10.953c7.493-1.176 13.225-7.66 13.225-15.483z"></path>
            <path fill="#fff" style="fill: var(--color4, #fff)" d="M22.271 20.254l0.695-4.531h-4.347v-2.939c0-1.239 0.607-2.449 2.554-2.449h1.976v-3.857c0 0-1.794-0.306-3.509-0.306-3.58 0-5.92 2.17-5.92 6.098v3.453h-3.98v4.531h3.98v10.953c1.623 0.254 3.275 0.254 4.898 0v-10.953h3.652z"></path>
        </symbol>
        <symbol id="pinterest" viewBox="0 0 32 32">
            <path fill="#fff" style="fill: var(--color4, #fff)" d="M16.32 31.376c8.656 0 15.673-7.017 15.673-15.673s-7.017-15.673-15.673-15.673c-8.656 0-15.673 7.017-15.673 15.673s7.017 15.673 15.673 15.673z"></path>
            <path fill="#e60019" style="fill: var(--color5, #e60019)" d="M16.32 0.029c-8.656 0-15.673 7.018-15.673 15.673 0 6.643 4.128 12.319 9.959 14.603-0.142-1.238-0.258-3.148 0.052-4.502 0.284-1.225 1.832-7.792 1.832-7.792s-0.464-0.942-0.464-2.322c0-2.18 1.264-3.805 2.838-3.805 1.342 0 1.987 1.006 1.987 2.206 0 1.342-0.851 3.354-1.303 5.225-0.374 1.561 0.787 2.838 2.322 2.838 2.786 0 4.928-2.941 4.928-7.172 0-3.754-2.696-6.373-6.553-6.373-4.463 0-7.082 3.341-7.082 6.798 0 1.342 0.516 2.786 1.161 3.573 0.129 0.155 0.142 0.297 0.103 0.451-0.116 0.49-0.387 1.561-0.439 1.78-0.065 0.284-0.232 0.348-0.529 0.206-1.961-0.916-3.186-3.767-3.186-6.076 0-4.941 3.586-9.482 10.359-9.482 5.431 0 9.662 3.87 9.662 9.056 0 5.405-3.406 9.752-8.127 9.752-1.587 0-3.083-0.826-3.586-1.806 0 0-0.787 2.993-0.98 3.728-0.348 1.367-1.303 3.070-1.948 4.115 1.471 0.452 3.019 0.697 4.644 0.697 8.656 0 15.673-7.018 15.673-15.673 0.026-8.682-6.992-15.699-15.648-15.699z"></path>
        </symbol>
        <symbol id="twitter" viewBox="0 0 31 32">
            <path fill="#1da1f2" style="fill: var(--color6, #1da1f2)" d="M11.065 28.143c10.911-0.75 16.257-10.199 15.718-18.038-0.018-0.257-0.035-0.512-0.070-0.766 1.103-0.919 2.034-2.028 2.749-3.274-1.050 0.554-2.176 0.948-3.343 1.167 1.188-0.826 2.034-2.056 2.383-3.46-1.117 0.771-2.357 1.346-3.668 1.699-0.96-0.89-2.186-1.438-3.489-1.561s-2.61 0.188-3.718 0.883-1.957 1.736-2.415 2.962c-0.457 1.226-0.498 2.569-0.115 3.82-2.367 0.044-4.716-0.411-6.895-1.334s-4.141-2.294-5.756-4.024c-0.669 1.358-0.795 2.92-0.353 4.368s1.42 2.672 2.733 3.425c-0.946 0.037-1.887-0.154-2.743-0.558l0.005 0.075c0.095 1.37 0.66 2.664 1.6 3.665s2.198 1.645 3.559 1.823c-0.857 0.298-1.771 0.396-2.671 0.286 0.46 1.153 1.269 2.132 2.313 2.803s2.272 0.998 3.512 0.936c-1.163 1.051-2.523 1.863-4 2.388s-3.044 0.754-4.61 0.674c2.832 1.554 6.052 2.261 9.275 2.035z"></path>
        </symbol>
        <symbol id="close" viewBox="0 0 32 32">
                <path fill="none" stroke="#fff" style="stroke: var(--color1, #fff)" stroke-linejoin="round" stroke-linecap="round" stroke-miterlimit="4" stroke-width="4" d="M5.847 28.566l21.124-24.037M28.427 27.11l-24.037-21.124"></path>
        </symbol>
    </defs>
</svg>